<svg xmlns="http://www.w3.org/2000/svg" viewBox="0 0 29.48 23.06"><defs><style>.ab524ea0-0848-4c4b-a97d-b21da48306d5{fill:#04247b;}.e3d1523d-f883-414e-8c19-ba377d2510d5{fill:#fff;}.eed1e64d-2e55-4443-9503-8ad7aab3ea78{fill:#ce152a;}</style></defs><title>Asset 17</title><g id="b4491531-fcde-41ad-86d5-59b3eee1c8eb" data-name="Layer 2"><g id="aaa80900-18f3-4a10-8f8b-6b9332bbfeda" data-name="Layer 1"><path class="ab524ea0-0848-4c4b-a97d-b21da48306d5" d="M0,14.8v4.37A26.5,26.5,0,0,1,6.55,13.1,11.83,11.83,0,0,0,0,14.8Z"/><path class="ab524ea0-0848-4c4b-a97d-b21da48306d5" d="M12.29,1c-3-.83-6-1.38-9-.65,3,1.27,6,3.82,9,6.64Z"/><path class="ab524ea0-0848-4c4b-a97d-b21da48306d5" d="M0,3.89V8.26a11.81,11.81,0,0,1,6.55-1.7A13.54,13.54,0,0,0,0,3.89Z"/><path class="ab524ea0-0848-4c4b-a97d-b21da48306d5" d="M29.48,8.26V3.89A26.65,26.65,0,0,1,22.94,10,11.79,11.79,0,0,0,29.48,8.26Z"/><path class="ab524ea0-0848-4c4b-a97d-b21da48306d5" d="M26.17,3.07c-3,.72-6,.17-9-.65v6A27.37,27.37,0,0,0,26.17,3.07Z"/><path class="ab524ea0-0848-4c4b-a97d-b21da48306d5" d="M29.48,19.17V14.8a11.79,11.79,0,0,1-6.54,1.7A13.51,13.51,0,0,0,29.48,19.17Z"/><path class="ab524ea0-0848-4c4b-a97d-b21da48306d5" d="M3.31,20c3-.72,6-.17,9,.65v-6A27.37,27.37,0,0,0,3.31,20Z"/><path class="ab524ea0-0848-4c4b-a97d-b21da48306d5" d="M17.19,22.07c3,.83,6,1.38,9,.65-3-1.27-6-3.82-9-6.64Z"/><path class="e3d1523d-f883-414e-8c19-ba377d2510d5" d="M19.63,16.11c.73.14,1.47.26,2.2.33,2.55,1.93,5.1,3.3,7.65,3.47v-.74a13.51,13.51,0,0,1-6.54-2.67,11.79,11.79,0,0,0,6.54-1.7V8.26A11.79,11.79,0,0,1,22.94,10a26.65,26.65,0,0,0,6.54-6.07V1.7h0a26,26,0,0,1-9.83,7.86c-.73-.15-1.47-.33-2.2-.53a26.74,26.74,0,0,0,9.83-6.29,11.4,11.4,0,0,1-1.1.32,27.37,27.37,0,0,1-9,5.34v-6c-1.63-.45-3.27-1-4.9-1.43V7c-3-2.82-6-5.37-9-6.64A11.62,11.62,0,0,0,0,1.69C3.29,1.92,6.57,4.11,9.84,7a20.87,20.87,0,0,0-2.2-.33C5.09,4.69,2.55,3.33,0,3.16v.73A13.58,13.58,0,0,1,6.55,6.56,11.83,11.83,0,0,0,0,8.26V14.8a11.81,11.81,0,0,1,6.55-1.7A26.68,26.68,0,0,0,0,19.17v2.19H0a26,26,0,0,1,9.83-7.87c.73.15,1.47.33,2.2.52A26.82,26.82,0,0,0,2.2,20.32q.55-.2,1.11-.33a27.47,27.47,0,0,1,9-5.34v6c1.63.45,3.27,1,4.9,1.43v-6c3,2.82,6,5.37,9,6.64a11.28,11.28,0,0,0,3.28-1.35C26.18,21.14,22.9,19,19.63,16.11Z"/><path class="eed1e64d-2e55-4443-9503-8ad7aab3ea78" d="M0,3.16c2.55.17,5.09,1.53,7.64,3.46A20.87,20.87,0,0,1,9.84,7C6.57,4.11,3.29,1.92,0,1.69H0Z"/><path class="eed1e64d-2e55-4443-9503-8ad7aab3ea78" d="M19.63,16.11c3.27,2.84,6.55,5,9.82,5.26h0V19.91c-2.55-.17-5.1-1.54-7.65-3.47C21.1,16.37,20.36,16.25,19.63,16.11Z"/><path class="eed1e64d-2e55-4443-9503-8ad7aab3ea78" d="M17.44,9c.73.2,1.47.38,2.2.53a26,26,0,0,0,9.83-7.86,12.48,12.48,0,0,1-2.2,1A26.74,26.74,0,0,1,17.44,9Z"/><path class="eed1e64d-2e55-4443-9503-8ad7aab3ea78" d="M12,14c-.73-.19-1.47-.37-2.2-.52A26,26,0,0,0,0,21.36a11.81,11.81,0,0,1,2.2-1A26.82,26.82,0,0,1,12,14Z"/><path class="eed1e64d-2e55-4443-9503-8ad7aab3ea78" d="M29.48,9.56c-4.42,2.66-8.84,1.73-13.26.44V2.14l-2.95-.88V9.13C8.84,7.84,4.42,6.91,0,9.56V13.5c4.42-2.66,8.84-1.73,13.27-.44v7.86l2.95.88V13.93c4.42,1.29,8.84,2.22,13.26-.43Z"/></g></g></svg>