<?xml version="1.0" encoding="UTF-8"?>
<!-- Generator: Adobe Illustrator 23.1.1, SVG Export Plug-In . SVG Version: 6.00 Build 0)  -->
<svg xmlns="http://www.w3.org/2000/svg" xmlns:xlink="http://www.w3.org/1999/xlink" version="1.1" id="Layer_1" x="0px" y="0px" viewBox="0 0 347.2 175" style="enable-background:new 0 0 347.2 175;" xml:space="preserve">
<style type="text/css">
	.st0{clip-path:url(#SVGID_2_);}
</style>
<title>lamajja_korunka_black</title>
<g id="ef3ee50d-68b5-4d80-a965-5b05fedf72df">
	<g id="b238d382-6512-4774-9038-a431d9f063e5">
		<path d="M150.2,97.1l23.6-53.2l23.4,53.2l-23.5,20.5L150.2,97.1z M204.2,91L174,22.4l-30.7,68.7L44.9,5.5l36.1,143.1    c2,12.1,12.4,20.9,24.7,20.9h34.9v-10.1h-34.9c-7.3,0-13.6-5.3-14.8-12.5L59.7,32.4l79.1,68.6l-7.6,16.9l7,6.1l0,0l7.5-16.9    l27.8,24.1l27.9-24.1l7.4,17l7.1-6.1l-7.5-16.9l79-68.5l-31.3,114.5c-1.2,7.2-7.4,12.5-14.7,12.5c-7.1,0-14.1-2.5-19.6-7l-7,7.3    c7.4,6.3,16.8,9.7,26.5,9.7c12.2,0,22.7-8.8,24.7-20.9L302.2,5.5L204.2,91z"></path>
		<g>
			<defs>
				<path id="SVGID_1_" d="M150.2,97.1l23.6-53.2l23.4,53.2l-23.5,20.5L150.2,97.1z M204.2,91L174,22.4l-30.7,68.7L44.9,5.5      l36.1,143.1c2,12.1,12.4,20.9,24.7,20.9h34.9v-10.1h-34.9c-7.3,0-13.6-5.3-14.8-12.5L59.7,32.4l79.1,68.6l-7.6,16.9l7,6.1l0,0      l7.5-16.9l27.8,24.1l27.9-24.1l7.4,17l7.1-6.1l-7.5-16.9l79-68.5l-31.3,114.5c-1.2,7.2-7.4,12.5-14.7,12.5      c-7.1,0-14.1-2.5-19.6-7l-7,7.3c7.4,6.3,16.8,9.7,26.5,9.7c12.2,0,22.7-8.8,24.7-20.9L302.2,5.5L204.2,91z"></path>
			</defs>
			<clipPath id="SVGID_2_">
				<use xlink:href="#SVGID_1_" style="overflow:visible;"></use>
			</clipPath>
			<g class="st0">
				<rect x="58.2" y="-59.2" transform="matrix(0.286 -0.9582 0.9582 0.286 40.0887 228.815)" width="230.7" height="293.4"></rect>
			</g>
		</g>
	</g>
</g>
</svg>
